<svg width="640" height="460" viewBox="0 0 640 460" fill="none" xmlns="http://www.w3.org/2000/svg">
  <rect width="640" height="460" rx="36" fill="url(#paint0_linear_2_10)"/>
  <circle cx="142" cy="96" r="72" fill="#2563EB" fill-opacity="0.18"/>
  <circle cx="525" cy="350" r="88" fill="#F59E0B" fill-opacity="0.16"/>
  <rect x="84" y="74" width="472" height="312" rx="30" fill="#FFFFFF"/>
  <path d="M134 286C192 200 236 180 292 198C349 216 386 196 432 138C460 103 495 93 528 104" stroke="#2563EB" stroke-width="14" stroke-linecap="round"/>
  <circle cx="134" cy="286" r="16" fill="#0F172A"/>
  <circle cx="292" cy="198" r="16" fill="#3B82F6"/>
  <circle cx="432" cy="138" r="16" fill="#F59E0B"/>
  <rect x="126" y="118" width="100" height="12" rx="6" fill="#0F172A"/>
  <rect x="250" y="238" width="120" height="12" rx="6" fill="#2563EB"/>
  <rect x="416" y="210" width="92" height="12" rx="6" fill="#F59E0B"/>
  <rect x="128" y="322" width="146" height="16" rx="8" fill="#E2E8F0"/>
  <rect x="286" y="322" width="110" height="16" rx="8" fill="#DBEAFE"/>
  <rect x="408" y="322" width="102" height="16" rx="8" fill="#FDE68A"/>
  <defs>
    <linearGradient id="paint0_linear_2_10" x1="48" y1="18" x2="594" y2="426" gradientUnits="userSpaceOnUse">
      <stop stop-color="#DBEAFE"/>
      <stop offset="0.48" stop-color="#F8FAFC"/>
      <stop offset="1" stop-color="#FEF3C7"/>
    </linearGradient>
  </defs>
</svg>
