<svg width="640" height="400" viewBox="0 0 640 400" fill="none" xmlns="http://www.w3.org/2000/svg">
  <rect width="640" height="400" rx="32" fill="url(#paint0_linear_2_4)"/>
  <circle cx="128" cy="92" r="64" fill="#F59E0B" fill-opacity="0.18"/>
  <rect x="86" y="102" width="208" height="150" rx="28" fill="#FFFFFF"/>
  <rect x="122" y="137" width="98" height="12" rx="6" fill="#2563EB"/>
  <rect x="122" y="162" width="128" height="8" rx="4" fill="#CBD5E1"/>
  <rect x="122" y="181" width="86" height="8" rx="4" fill="#CBD5E1"/>
  <rect x="322" y="78" width="232" height="244" rx="30" fill="#0F172A"/>
  <rect x="356" y="122" width="116" height="14" rx="7" fill="#93C5FD"/>
  <rect x="356" y="151" width="146" height="9" rx="4.5" fill="#475569"/>
  <rect x="356" y="172" width="128" height="9" rx="4.5" fill="#475569"/>
  <rect x="356" y="209" width="164" height="48" rx="18" fill="#1E3A8A"/>
  <rect x="374" y="228" width="106" height="10" rx="5" fill="#FFFFFF"/>
  <rect x="356" y="275" width="102" height="10" rx="5" fill="#F59E0B"/>
  <rect x="468" y="275" width="52" height="10" rx="5" fill="#3B82F6"/>
  <defs>
    <linearGradient id="paint0_linear_2_4" x1="54" y1="20" x2="608" y2="364" gradientUnits="userSpaceOnUse">
      <stop stop-color="#DBEAFE"/>
      <stop offset="0.45" stop-color="#F8FAFC"/>
      <stop offset="1" stop-color="#E0F2FE"/>
    </linearGradient>
  </defs>
</svg>
