<svg width="640" height="400" viewBox="0 0 640 400" fill="none" xmlns="http://www.w3.org/2000/svg">
  <rect width="640" height="400" rx="32" fill="url(#paint0_linear_2_7)"/>
  <circle cx="534" cy="84" r="60" fill="#F59E0B" fill-opacity="0.2"/>
  <rect x="76" y="70" width="488" height="258" rx="30" fill="#FFFFFF"/>
  <path d="M126 240C173 185 200 180 244 205C286 229 320 233 364 182C400 140 450 127 516 158" stroke="#2563EB" stroke-width="14" stroke-linecap="round"/>
  <circle cx="126" cy="240" r="14" fill="#0F172A"/>
  <circle cx="244" cy="205" r="14" fill="#2563EB"/>
  <circle cx="364" cy="182" r="14" fill="#3B82F6"/>
  <circle cx="516" cy="158" r="14" fill="#F59E0B"/>
  <rect x="120" y="108" width="80" height="12" rx="6" fill="#0F172A"/>
  <rect x="212" y="258" width="102" height="12" rx="6" fill="#2563EB"/>
  <rect x="338" y="116" width="118" height="12" rx="6" fill="#3B82F6"/>
  <rect x="460" y="218" width="72" height="12" rx="6" fill="#F59E0B"/>
  <defs>
    <linearGradient id="paint0_linear_2_7" x1="24" y1="18" x2="594" y2="366" gradientUnits="userSpaceOnUse">
      <stop stop-color="#EFF6FF"/>
      <stop offset="0.58" stop-color="#F8FAFC"/>
      <stop offset="1" stop-color="#FEF3C7"/>
    </linearGradient>
  </defs>
</svg>
