<svg width="96" height="96" viewBox="0 0 96 96" fill="none" xmlns="http://www.w3.org/2000/svg">
  <rect width="96" height="96" rx="28" fill="url(#paint0_linear_1_5)"/>
  <rect x="8" y="8" width="80" height="80" rx="24" fill="url(#paint1_linear_1_5)" fill-opacity="0.36"/>
  <path d="M28 48C28 35.8497 37.8497 26 50 26C57.4234 26 64 29.679 68 35.3247L60.3964 40.8968C58.2567 37.7562 54.6555 35.7 50.5 35.7C43.7305 35.7 38.25 41.1805 38.25 47.95C38.25 54.7195 43.7305 60.2 50.5 60.2C55.218 60.2 59.313 57.5346 61.3686 53.6268H50.5V44.55H72C72.1744 45.7958 72.25 47.0706 72.25 48.35C72.25 61.1131 62.1131 71.25 49.35 71.25C36.5869 71.25 26.45 61.1131 26.45 48.35L28 48Z" fill="white"/>
  <path d="M60.75 23.5L71.5 24.2L70.75 34.85" stroke="white" stroke-width="4.2" stroke-linecap="round" stroke-linejoin="round"/>
  <defs>
    <linearGradient id="paint0_linear_1_5" x1="10" y1="8" x2="88" y2="90" gradientUnits="userSpaceOnUse">
      <stop stop-color="#2563EB"/>
      <stop offset="0.58" stop-color="#3B82F6"/>
      <stop offset="1" stop-color="#F59E0B"/>
    </linearGradient>
    <linearGradient id="paint1_linear_1_5" x1="16" y1="16" x2="80" y2="80" gradientUnits="userSpaceOnUse">
      <stop stop-color="white" stop-opacity="0.48"/>
      <stop offset="1" stop-color="white" stop-opacity="0"/>
    </linearGradient>
  </defs>
</svg>
